# xmcd
#
# Track frame offsets:
#	150
#	19116
#	33832
#	50012
#	73244
#	95123
#	124259
#	144642
#	159027
#	170264
#	185791
#	208055
#	229021
#
# Disc length: 3254 seconds
#
# Revision: 1
# Processed by: cddbd v1.5.2PL0 Copyright (c) Steve Scherf et al.
# Submitted via: audiograbber 1.83.01
#
DISCID=b90cb40d
DTITLE=Spinner,Tony - Down home Mojo
DYEAR=2011
DGENRE=Blues
TTITLE0=All mine
TTITLE1=Let me in
TTITLE2=World full of women
TTITLE3=Knucklehead
TTITLE4=Sweet thang
TTITLE5=How long
TTITLE6=Getcha back
TTITLE7=She gave me back my mojo
TTITLE8=Josie
TTITLE9=State line
TTITLE10=Tommy two guns
TTITLE11=Don't go
TTITLE12=Dirty little Mynx
EXTD=
EXTT0=
EXTT1=
EXTT2=
EXTT3=
EXTT4=
EXTT5=
EXTT6=
EXTT7=
EXTT8=
EXTT9=
EXTT10=
EXTT11=
EXTT12=
PLAYORDER=
